<svg id="Layer_1" data-name="Layer 1" xmlns="http://www.w3.org/2000/svg" width="34.34" height="34" viewBox="0 0 34.34 34"><defs><style>.cls-1{fill:#fff;}</style></defs><title>logo</title><path class="cls-1" d="M17.34,34a17,17,0,1,1,17-17A17,17,0,0,1,17.34,34Zm0-32.47A15.47,15.47,0,1,0,32.81,17,15.53,15.53,0,0,0,17.34,1.53Z"/><polygon class="cls-1" points="26.36 22.78 26.36 22.78 26.36 22.78 20.49 9.61 18.7 9.61 15.47 16.91 16.58 18.27 19.55 11.56 24.48 22.78 20.57 22.78 19.55 22.78 19.3 22.78 18.62 24.39 20.91 24.39 21.93 24.39 25.25 24.39 26.36 24.39 27.04 24.39 26.36 22.78"/><polygon class="cls-1" points="10.21 22.78 16.58 9.61 14.79 9.61 7.66 24.39 16.84 24.39 17.6 22.78 10.21 22.78"/></svg>